<?xml version="1.0" encoding="UTF-8"?>
<svg version="1.1" xmlns="http://www.w3.org/2000/svg" width="1080" height="1080">
<path d="M0 0 C14.30766136 -0.04668014 28.61531094 -0.08183637 42.92303276 -0.10362434 C49.56606556 -0.11407935 56.20904735 -0.1282698 62.85205078 -0.15087891 C69.2581139 -0.17254614 75.66412784 -0.18455568 82.07022476 -0.18975449 C84.51915385 -0.19346127 86.96808012 -0.20069925 89.41698837 -0.21146011 C92.83648329 -0.22589367 96.25577269 -0.22798136 99.67529297 -0.22705078 C100.69668365 -0.23424133 101.71807434 -0.24143188 102.77041626 -0.24884033 C104.16287567 -0.24471634 104.16287567 -0.24471634 105.58346558 -0.24050903 C106.79746694 -0.24327441 106.79746694 -0.24327441 108.03599358 -0.24609566 C110 0 110 0 112 2 C112.24050903 4.13870239 112.24050903 4.13870239 112.22705078 6.81689453 C112.22689972 7.81778107 112.22674866 8.8186676 112.22659302 9.84988403 C112.21627045 10.93325043 112.20594788 12.01661682 112.1953125 13.1328125 C112.1924826 14.23978485 112.18965271 15.3467572 112.18673706 16.48727417 C112.17551519 20.03329137 112.15040691 23.57905875 112.125 27.125 C112.1149728 29.52473594 112.1058465 31.92447583 112.09765625 34.32421875 C112.07556932 40.21623151 112.04207207 46.10809791 112 52 C110.72125 52.309375 109.4425 52.61875 108.125 52.9375 C105.89898325 53.47605244 104.05260001 53.9737 102 55 C99.81057105 62.04798968 102.49993585 68.34085819 104.62109375 75.15234375 C104.99984146 76.40761368 105.37858917 77.66288361 105.76881409 78.95619202 C106.77064319 82.27594099 107.78940226 85.59025144 108.81188965 88.90368652 C109.85435735 92.29267273 110.88057164 95.68657 111.90820312 99.08007812 C113.92300645 105.72492186 115.95575516 112.36415652 118 119 C118.66 118.34 119.32 117.68 120 117 C120.33 117.99 120.66 118.98 121 120 C121.66 120 122.32 120 123 120 C123.10666992 119.02329346 123.21333984 118.04658691 123.32324219 117.0402832 C123.95865981 112.61572693 125.35854905 108.56309118 126.828125 104.35546875 C127.38677595 102.69251331 127.94402463 101.02908625 128.5 99.36523438 C129.37134415 96.77352521 130.25058151 94.18583947 131.15429688 91.60522461 C135.91480685 79.38018273 135.91480685 79.38018273 134.02636719 66.8996582 C133.68766602 66.272771 133.34896484 65.64588379 133 65 C132.5771875 63.9790625 132.154375 62.958125 131.71875 61.90625 C131.3165625 61.1121875 130.914375 60.318125 130.5 59.5 C129.89671875 58.27796875 129.89671875 58.27796875 129.28125 57.03125 C128.01244338 54.71376467 128.01244338 54.71376467 125 53 C123.35 52.67 121.7 52.34 120 52 C120 34.84 120 17.68 120 0 C145.91474736 -0.04010881 145.91474736 -0.04010881 156.91992188 -0.04882812 C164.44361064 -0.05481722 171.9672873 -0.06191927 179.4909668 -0.07543945 C185.55337723 -0.08626614 191.61577469 -0.09227637 197.67819405 -0.09487724 C199.99676277 -0.09673189 202.31533074 -0.10035325 204.63389397 -0.10573006 C207.86914508 -0.11293758 211.10434183 -0.11399106 214.33959961 -0.11352539 C215.30848114 -0.11712067 216.27736267 -0.12071594 217.27560425 -0.12442017 C218.59027428 -0.12235817 218.59027428 -0.12235817 219.9315033 -0.12025452 C221.08051825 -0.12163721 221.08051825 -0.12163721 222.25274563 -0.12304783 C224 0 224 0 225 1 C225.09333705 2.59610982 225.11745372 4.19633428 225.11352539 5.79516602 C225.11344986 6.81614883 225.11337433 7.83713165 225.11329651 8.88905334 C225.10813522 9.9994548 225.10297394 11.10985626 225.09765625 12.25390625 C225.09553383 13.94978127 225.09553383 13.94978127 225.09336853 15.67991638 C225.08775019 19.30747065 225.07519458 22.93496424 225.0625 26.5625 C225.05748736 29.01497307 225.05292405 31.4674471 225.04882812 33.91992188 C225.0377748 39.94663545 225.02101884 45.97331339 225 52 C224.30132812 52.12117188 223.60265625 52.24234375 222.8828125 52.3671875 C221.97273437 52.53476562 221.06265625 52.70234375 220.125 52.875 C219.22007812 53.03742188 218.31515625 53.19984375 217.3828125 53.3671875 C214.83494012 53.83044703 214.83494012 53.83044703 213 56 C212.60207696 63.93923 215.36742465 72.0835039 217.37890625 79.6640625 C217.71043198 80.93728363 218.0419577 82.21050476 218.38352966 83.52230835 C219.25644243 86.87437766 220.13826559 90.22403715 221.02209473 93.57324219 C221.92582171 97.00442429 222.82092323 100.43785449 223.71679688 103.87109375 C225.46952541 110.5829286 227.23169662 117.29225216 229 124 C229.95296157 121.33288128 230.90304332 118.66479228 231.8515625 115.99609375 C232.25097046 114.87962463 232.25097046 114.87962463 232.65844727 113.74060059 C234.865956 107.5186713 236.7687986 101.23924674 238.56640625 94.88671875 C239.6769516 91.03469412 240.87337269 87.21439151 242.08984375 83.39453125 C242.45609863 82.23622803 242.82235352 81.0779248 243.19970703 79.88452148 C243.92853006 77.58596267 244.66490755 75.28978236 245.40966797 72.99633789 C247.94731121 65.13833483 247.94731121 65.13833483 248 57 C243.63690009 52.85505509 239.70467884 52.58013683 234 52 C232.76979157 49.53958313 232.914866 48.02247347 232.97827148 45.27490234 C232.99836777 44.29403656 233.01846405 43.31317078 233.03916931 42.30258179 C233.06620438 41.24108917 233.09323944 40.17959656 233.12109375 39.0859375 C233.14470474 38.00116119 233.16831573 36.91638489 233.19264221 35.79873657 C233.2693943 32.32402838 233.35336904 28.84953662 233.4375 25.375 C233.49070912 23.02344819 233.54344958 20.67188573 233.59570312 18.3203125 C233.72502503 12.54674023 233.8602819 6.77332952 234 1 C236.85317651 -0.42658825 239.27625269 -0.12728556 242.46582031 -0.12939453 C243.12947098 -0.13114685 243.79312164 -0.13289917 244.47688293 -0.13470459 C246.67732335 -0.13911591 248.87768372 -0.13618631 251.078125 -0.1328125 C252.60788997 -0.13348607 254.13765483 -0.13445653 255.66741943 -0.13571167 C258.87871313 -0.13718793 262.08997906 -0.13503757 265.30126953 -0.13037109 C269.40799821 -0.12469307 273.51466125 -0.12794099 277.62138748 -0.13394356 C280.783615 -0.13756755 283.94582712 -0.13640181 287.10805511 -0.13381577 C288.62144732 -0.13315058 290.13484095 -0.1339606 291.64823151 -0.13629532 C293.77105878 -0.13884988 295.89378199 -0.13494109 298.01660156 -0.12939453 C299.82623383 -0.12820114 299.82623383 -0.12820114 301.67242432 -0.12698364 C305 0 305 0 311 1 C311 17.83 311 34.66 311 52 C305.06 52.99 305.06 52.99 299 54 C293.59947779 56.81558955 292.20882496 61.42169445 290.19921875 66.87109375 C289.8607341 67.75292831 289.52224945 68.63476288 289.17350769 69.5433197 C288.09931254 72.35633411 287.04796411 75.17711991 286 78 C285.32537632 79.79456286 284.65041333 81.58899821 283.97509766 83.38330078 C281.89590564 88.93390926 279.85329351 94.49768544 277.8125 100.0625 C277.06705845 102.08841776 276.32128476 104.11421333 275.57519531 106.13989258 C274.44874237 109.19839157 273.3224693 112.2569551 272.19723511 115.31590271 C268.38736226 125.67280112 264.54955354 136.0192462 260.69506836 146.35961914 C258.21725672 153.01011931 255.75252637 159.66476224 253.32434082 166.33357239 C252.13330415 169.60263424 250.93620903 172.8694626 249.73864746 176.13613892 C249.16831118 177.6971876 248.60094923 179.25932656 248.03674316 180.82260132 C247.25852606 182.97829541 246.47023087 185.13005155 245.6796875 187.28125 C245.23351074 188.50908203 244.78733398 189.73691406 244.32763672 191.00195312 C243.06058139 193.86319613 242.44150338 195.15517115 240 197 C237.47529602 197.36076355 237.47529602 197.36076355 234.42700195 197.34057617 C232.71556755 197.34023628 232.71556755 197.34023628 230.96955872 197.33988953 C229.73823715 197.32440567 228.50691559 197.30892181 227.23828125 197.29296875 C225.34688667 197.28660149 225.34688667 197.28660149 223.4172821 197.28010559 C220.06825057 197.26614627 216.71983242 197.23920104 213.37097168 197.20599365 C209.95244647 197.17528105 206.53385785 197.16159776 203.11523438 197.14648438 C196.40998651 197.11337223 189.70502867 197.06314018 183 197 C180.36104713 191.88160115 178.04477209 186.81595307 176.08203125 181.40625 C175.82316132 180.70474319 175.56429138 180.00323639 175.2975769 179.2804718 C174.46503909 177.02182668 173.63876935 174.76094483 172.8125 172.5 C172.23789613 170.93820743 171.66277811 169.37660393 171.0871582 167.81518555 C170.22011233 165.46292433 169.35342565 163.11053753 168.48851013 160.75749207 C165.91801997 153.76453626 163.30966316 146.78625796 160.6875 139.8125 C160.30891846 138.80445313 159.93033691 137.79640625 159.5402832 136.7578125 C158.69407276 134.50500066 157.84735471 132.25238163 157 130 C152.15810314 140.93174945 148.34047752 152.2090045 144.4375 163.5 C143.77180477 165.41547596 143.10579117 167.33084131 142.43945312 169.24609375 C139.23263546 178.47862086 136.09097938 187.72706187 133 197 C113.2 197 93.4 197 73 197 C66.54276318 181.15041871 60.11438343 165.32746167 53.96353149 149.36239624 C52.35326991 145.18311058 50.73723118 141.00606512 49.12162781 136.82884216 C48.29333528 134.6871475 47.46530007 132.54535331 46.63752747 130.40345764 C42.88091634 120.68442835 39.1053425 110.97285874 35.31820679 101.26568604 C34.66354043 99.58741194 34.00924458 97.90899326 33.3553772 96.23040771 C31.5582241 91.61692119 29.752205 87.00705131 27.93902588 82.39984131 C26.9190548 79.79313068 25.91353544 77.18104854 24.90771484 74.56884766 C24.20313248 72.7606124 23.4982247 70.9525039 22.79296875 69.14453125 C22.47314529 68.30460129 22.15332184 67.46467133 21.82380676 66.59928894 C19.79810892 61.44383682 17.83553752 56.62030715 12.8125 53.75 C9.50547864 52.86812764 6.30021604 52.56955073 2.890625 52.34375 C2.26671875 52.2303125 1.6428125 52.116875 1 52 C-0.23080509 49.53838983 -0.12043977 47.93503007 -0.11352539 45.18310547 C-0.11344986 44.18221893 -0.11337433 43.1813324 -0.11329651 42.15011597 C-0.10813522 41.06674957 -0.10297394 39.98338318 -0.09765625 38.8671875 C-0.0962413 37.76021515 -0.09482635 36.6532428 -0.09336853 35.51272583 C-0.08775772 31.96679007 -0.07520337 28.42091677 -0.0625 24.875 C-0.05748639 22.47526133 -0.05292325 20.07552167 -0.04882812 17.67578125 C-0.03778478 11.78383275 -0.0210361 5.89192084 0 0 Z M121 121 C120.01 121.495 120.01 121.495 119 122 C119.33 123.32 119.66 124.64 120 126 C120.66 125.01 121.32 124.02 122 123 C121.67 122.34 121.34 121.68 121 121 Z " fill="#EFEFEF" transform="translate(112,438)"/>
<path d="M0 0 C0.00808685 1.08692642 0.01617371 2.17385284 0.02450562 3.29371643 C0.1020697 13.54879192 0.1898349 23.80373641 0.28752708 34.05864048 C0.33742253 39.33048953 0.3837532 44.6023192 0.421875 49.87426758 C0.45881303 54.96422804 0.50519616 60.05402364 0.55806351 65.1438427 C0.57656221 67.08341511 0.59168678 69.0230228 0.60334396 70.96264839 C0.62028392 73.68433554 0.6493375 76.40564885 0.68115234 79.12719727 C0.68331253 79.92489532 0.68547272 80.72259338 0.68769836 81.54446411 C0.76769433 86.91934897 0.95397437 92.63920119 4.625 96.875 C9.42592793 99.14912376 13.63414931 99.22764178 18.75 98.375 C23.23021569 96.47952413 25.01526279 94.04895994 27.08886719 89.734375 C28.15237106 86.54272351 28.25882316 83.92455239 28.265625 80.5625 C28.26820313 79.33789062 28.27078125 78.11328125 28.2734375 76.8515625 C28.26183594 74.94503906 28.26183594 74.94503906 28.25 73 C28.25773438 71.72898437 28.26546875 70.45796875 28.2734375 69.1484375 C28.26957031 67.31152344 28.26957031 67.31152344 28.265625 65.4375 C28.26224121 63.76494141 28.26224121 63.76494141 28.25878906 62.05859375 C27.99409778 58.93024239 27.48751203 56.7598727 26 54 C21.24812414 51.96348177 16.89233124 51.82962099 11.8203125 52.02734375 C10 52 10 52 9 51 C8.90680551 49.4651703 8.882542 47.92607918 8.88647461 46.38842773 C8.88658791 44.91701576 8.88658791 44.91701576 8.88670349 43.4158783 C8.89186478 42.3492244 8.89702606 41.2825705 8.90234375 40.18359375 C8.9037587 39.0974025 8.90517365 38.01121124 8.90663147 36.8921051 C8.91224952 33.40720925 8.92480508 29.92237658 8.9375 26.4375 C8.94251267 24.08138113 8.94707598 21.72526126 8.95117188 19.36914062 C8.96222481 13.57940536 8.97898049 7.78970719 9 2 C14.06938273 -0.04473222 18.3067456 -0.24722348 23.66748047 -0.13525391 C24.51691727 -0.12579239 25.36635406 -0.11633087 26.24153137 -0.10658264 C29.03364287 -0.07305442 31.82529643 -0.0248987 34.6171875 0.0234375 C36.55916161 0.04962006 38.50114828 0.07488582 40.44314575 0.09927368 C45.54288687 0.16577338 50.64236237 0.24469887 55.74188232 0.32623291 C60.95021405 0.40730078 66.1587011 0.47658883 71.3671875 0.546875 C81.57831116 0.68640261 91.78919294 0.83906076 102 1 C102.00808685 2.10611633 102.01617371 3.21223267 102.02450562 4.35186768 C102.10194917 14.76975523 102.189684 25.1875119 102.28752708 35.60522842 C102.33749903 40.96123915 102.38382909 46.31723007 102.421875 51.67333984 C102.45871631 56.84109291 102.50507329 62.00868059 102.55806351 67.17629242 C102.57661356 69.14904635 102.59171926 71.12183574 102.60334396 73.09464264 C102.62019584 75.85526001 102.64922848 78.61549811 102.68115234 81.37597656 C102.68331253 82.19381119 102.68547272 83.01164581 102.68769836 83.85426331 C102.67900487 89.28229455 102.67900487 89.28229455 105 94 C108.21662026 96.24583847 111.40218392 96.37405547 115.25 96.625 C116.86648438 96.73714844 116.86648438 96.73714844 118.515625 96.8515625 C119.74539063 96.92503906 119.74539063 96.92503906 121 97 C121.02526787 104.10244999 121.04283201 111.20488848 121.05493164 118.30737305 C121.05997349 120.72567172 121.06680678 123.14396733 121.07543945 125.56225586 C121.08751157 129.02979283 121.09322963 132.49728966 121.09765625 135.96484375 C121.10281754 137.05337143 121.10797882 138.14189911 121.11329651 139.26341248 C121.11337204 140.26437454 121.11344757 141.26533661 121.11352539 142.29663086 C121.115746 143.18265488 121.11796661 144.06867889 121.12025452 144.98155212 C121 147 121 147 120 148 C117.56603981 148.09498646 115.16057048 148.12558417 112.72631836 148.11352539 C111.96539383 148.11367142 111.2044693 148.11381744 110.42048645 148.1139679 C107.89357702 148.11326862 105.36674038 148.10547555 102.83984375 148.09765625 C101.0924941 148.09579212 99.34514393 148.0943682 97.59779358 148.09336853 C92.98968066 148.08954293 88.38159905 148.07971229 83.77349854 148.06866455 C79.07491479 148.05845134 74.37632601 148.0538711 69.67773438 148.04882812 C60.45180692 148.03809005 51.22591096 148.02049292 42 148 C41.67 137.44 41.34 126.88 41 116 C38.525 122.435 38.525 122.435 36 129 C34.03915608 132.07495978 32.42239289 134.39468042 30 137 C29.36449219 137.68835938 28.72898437 138.37671875 28.07421875 139.0859375 C16.64210654 150.3299528 0.5762186 152.39951214 -14.8125 152.3125 C-15.86276367 152.30686035 -16.91302734 152.3012207 -17.99511719 152.29541016 C-34.45986556 152.03886286 -48.68184196 148.11694599 -60.8125 136.39453125 C-74.4088013 121.51143715 -73.59160397 101.73552784 -73.625 82.8125 C-73.64139124 79.47615956 -73.6634264 76.14009547 -73.69662476 72.80387878 C-73.71613491 70.74496119 -73.72560274 68.68591634 -73.72354126 66.62690735 C-73.66196645 60.04147851 -73.66196645 60.04147851 -76 54 C-80.75187586 51.96348177 -85.10766876 51.82962099 -90.1796875 52.02734375 C-92 52 -92 52 -93 51 C-93.09839214 49.4706537 -93.12798539 47.93680434 -93.12939453 46.40429688 C-93.13254669 45.42658325 -93.13569885 44.44886963 -93.13894653 43.44152832 C-93.1369223 42.37801147 -93.13489807 41.31449463 -93.1328125 40.21875 C-93.13376923 39.13493042 -93.13472595 38.05111084 -93.13571167 36.93444824 C-93.13639365 34.6377761 -93.13453811 32.34110205 -93.13037109 30.04443359 C-93.12502312 26.51525572 -93.1303155 22.98620513 -93.13671875 19.45703125 C-93.13605797 17.23177055 -93.13477682 15.00650993 -93.1328125 12.78125 C-93.13483673 11.71773315 -93.13686096 10.65421631 -93.13894653 9.55847168 C-93.13579437 8.58075806 -93.13264221 7.60304443 -93.12939453 6.59570312 C-93.12859894 5.73046021 -93.12780334 4.86521729 -93.12698364 3.97375488 C-93 2 -93 2 -92 1 C-89.3546211 0.87486515 -86.73406539 0.81393367 -84.0871582 0.79467773 C-82.8431852 0.77982834 -82.8431852 0.77982834 -81.57408142 0.76467896 C-78.81634425 0.73294664 -76.05859006 0.70824952 -73.30078125 0.68359375 C-71.38843842 0.66302335 -69.47610013 0.64202686 -67.56376648 0.62062073 C-62.51412716 0.56529044 -57.46444581 0.5159522 -52.41473389 0.46777344 C-47.29272545 0.41778984 -42.17078192 0.36189349 -37.04882812 0.30664062 C-29.55251905 0.22677709 -22.05619498 0.14880302 -14.55981445 0.07592773 C-13.77879364 0.06814804 -12.99777283 0.06036835 -12.19308472 0.05235291 C-8.12855663 0.01357293 -4.06471054 -0.00782512 0 0 Z " fill="#EFEFEF" transform="translate(523,487)"/>
<path d="M0 0 C0.74805908 0.03077637 1.49611816 0.06155273 2.2668457 0.09326172 C5.92202699 0.29919946 7.69672225 0.54781483 10.8125 2.625 C12.4452322 3.01750991 14.09407213 3.34610689 15.75 3.625 C19.1775037 4.20400515 21.73725018 5.03867854 24.8125 6.625 C26.10954869 7.23178518 27.40911253 7.83321847 28.7109375 8.4296875 C29.43796875 8.76613281 30.165 9.10257812 30.9140625 9.44921875 C32.42027885 10.14539091 33.92807941 10.8381465 35.4375 11.52734375 C42.20898805 14.67381258 47.57352947 18.26129207 52.8125 23.625 C54.87590955 25.36113763 56.9482228 27.08302384 59.04296875 28.78125 C61.12970037 30.95550458 61.78628103 32.8018675 62.8125 35.625 C63.93104578 37.73260473 65.056725 39.83643116 66.1875 41.9375 C75.66426644 60.69858617 77.17166312 83.74287907 71.23046875 103.92578125 C69.04781296 109.61992734 66.40289658 115.02536385 63.51953125 120.39453125 C61.75883354 123.51328038 61.75883354 123.51328038 60.8125 126.625 C59.28125 128.16796875 59.28125 128.16796875 57.3125 129.8125 C55.08137237 131.68554542 52.89526002 133.54433721 50.80859375 135.578125 C31.18036319 154.49869639 1.59245365 158.16109314 -24.46459961 157.97631836 C-52.36938398 157.38609999 -78.14163954 150.94297621 -98.1875 130.625 C-98.80496094 130.00625 -99.42242188 129.3875 -100.05859375 128.75 C-112.38041292 115.43603436 -116.59148652 96.96462965 -116.5 79.375 C-116.49581055 78.27397949 -116.49162109 77.17295898 -116.48730469 76.03857422 C-116.37386475 67.85279636 -115.61402125 60.4823069 -113.1875 52.625 C-112.92066406 51.68140625 -112.65382813 50.7378125 -112.37890625 49.765625 C-106.72272849 31.96751897 -93.24915803 19.63959413 -77.234375 11.0390625 C-69.37115164 7.1469645 -61.31904659 4.79336923 -52.86328125 2.60546875 C-49.39452318 1.81250665 -49.39452318 1.81250665 -47.1875 0.625 C-31.61615963 -1.19765689 -15.62811849 -0.7400011 0 0 Z M-34.375 44.8125 C-40.57975271 54.44056454 -40.37406881 65.10959439 -40.37280273 76.22070312 C-40.37498029 78.35567441 -40.39315346 80.49012038 -40.41210938 82.625 C-40.53820535 99.21429955 -40.53820535 99.21429955 -33.1875 113.625 C-29.3911919 117.32871522 -26.33071604 117.92156006 -21.1875 118.125 C-16.08209489 117.95418719 -13.08201846 117.12008067 -9.1875 113.625 C-8.61 113.150625 -8.0325 112.67625 -7.4375 112.1875 C-4.54313533 108.56954416 -3.92002203 104.57570935 -3.625 100.0625 C-3.27735779 94.94719319 -3.27735779 94.94719319 -2.68261719 92.81469727 C-1.60310636 88.04047015 -2.0027247 82.99676434 -2 78.125 C-1.98163086 76.44277344 -1.98163086 76.44277344 -1.96289062 74.7265625 C-1.94521574 64.52226192 -2.11306046 53.28786051 -8.1875 44.625 C-12.36526305 40.55168102 -15.84719715 39.49532217 -21.5625 39.375 C-27.00676431 39.45545711 -30.48775035 40.92525035 -34.375 44.8125 Z " fill="#EFEFEF" transform="translate(893.1875,482.375)"/>
<path d="M0 0 C0.8878418 0.00142502 1.77568359 0.00285004 2.69042969 0.00431824 C4.20897301 -0.00022873 4.20897301 -0.00022873 5.75819397 -0.00486755 C7.41847878 0.00584274 7.41847878 0.00584274 9.11230469 0.01676941 C10.26198227 0.01681976 11.41165985 0.01687012 12.59617615 0.016922 C16.35166017 0.02054782 20.10687632 0.03946944 23.86230469 0.05973816 C26.42228113 0.06724996 28.98225837 0.07449248 31.54223633 0.08146667 C45.79774681 0.13431836 60.04978639 0.27470189 74.29980469 0.68473816 C75.00967529 0.70420502 75.7195459 0.72367187 76.45092773 0.74372864 C87.68059188 1.06552535 87.68059188 1.06552535 88.86230469 2.24723816 C88.95992352 4.0075755 88.98695047 5.77185488 88.98687744 7.53489685 C88.98944046 8.68178482 88.99200348 9.82867279 88.99464417 11.01031494 C88.9925444 12.27991562 88.99044464 13.5495163 88.98828125 14.85758972 C88.98967524 16.19936177 88.99157404 17.54113337 88.99394226 18.88290405 C88.99844811 21.77926741 89.00029554 24.67561657 89.00040436 27.57198334 C89.00154228 32.1521465 89.01436332 36.7322286 89.02996826 41.31236267 C89.03254112 42.08460277 89.03511397 42.85684287 89.03776479 43.65248418 C89.0430317 45.23199978 89.04831718 46.81151531 89.05362082 48.39103079 C89.08875703 59.0581187 89.11528363 69.72510716 89.11279297 80.39225769 C89.11120454 87.58160992 89.12723809 94.77068711 89.16349959 101.95995116 C89.18196877 105.76587934 89.19129487 109.57134834 89.17902374 113.37731171 C89.16758689 116.95951653 89.17928943 120.54089984 89.20865822 124.12299538 C89.21846367 126.06266691 89.20352893 128.00241417 89.18785095 129.94204712 C89.0316308 136.78214155 89.0316308 136.78214155 92.21014404 142.5120697 C95.27469533 144.51704355 97.48592535 145.08636759 101.11230469 145.49723816 C106.80674913 146.1916826 106.80674913 146.1916826 107.86230469 147.24723816 C107.9606103 148.7406401 107.99028919 150.23864193 107.99169922 151.73527527 C107.99485138 152.68974045 107.99800354 153.64420563 108.00125122 154.62759399 C107.99821487 156.18535301 107.99821487 156.18535301 107.99511719 157.77458191 C107.99607391 158.83383377 107.99703064 159.89308563 107.99801636 160.98443604 C107.99869839 163.22983357 107.99684252 165.47523306 107.99267578 167.72062683 C107.98733313 171.16639116 107.9926173 174.61202482 107.99902344 178.05778503 C107.99836256 180.23421762 107.99708119 182.41065011 107.99511719 184.58708191 C107.99714142 185.62356369 107.99916565 186.66004547 108.00125122 187.72793579 C107.99652298 189.1643618 107.99652298 189.1643618 107.99169922 190.62980652 C107.99090363 191.47506393 107.99010803 192.32032135 107.98928833 193.19119263 C107.86230469 195.24723816 107.86230469 195.24723816 106.86230469 197.24723816 C70.23230469 197.24723816 33.60230469 197.24723816 -4.13769531 197.24723816 C-4.13769531 180.41723816 -4.13769531 163.58723816 -4.13769531 146.24723816 C-0.83769531 145.91723816 2.46230469 145.58723816 5.86230469 145.24723816 C9.73181372 143.84762851 10.58517568 142.78812481 12.46630859 139.11662292 C14.82224753 132.48419315 14.29296936 125.34581909 14.26074219 118.39958191 C14.26276649 116.85836652 14.26568088 115.31715207 14.2694397 113.77593994 C14.27384501 110.557539 14.26748935 107.33938906 14.25341797 104.12101746 C14.23631248 100.00989562 14.24618694 95.89936088 14.26413536 91.78826046 C14.27500963 88.60966622 14.27151048 85.4312097 14.26375198 82.25261116 C14.26176078 80.73725374 14.26417105 79.22188353 14.27119064 77.70654106 C14.27886737 75.58427473 14.2671166 73.46294141 14.25048828 71.34074402 C14.2481015 70.13687546 14.24571472 68.9330069 14.24325562 67.69265747 C13.71055499 62.87477445 12.47968048 58.89571734 9.03417969 55.38395691 C6.39423689 54.00226023 4.05329325 53.51489115 1.11230469 53.05973816 C0.12746094 52.90118347 -0.85738281 52.74262878 -1.87207031 52.57926941 C-2.61972656 52.4696991 -3.36738281 52.36012878 -4.13769531 52.24723816 C-4.18828058 45.16312194 -4.22338025 38.07905204 -4.24755859 30.99479675 C-4.25763485 28.58332071 -4.27129612 26.17185694 -4.28857422 23.76042175 C-4.31275121 20.30026731 -4.324162 16.84027396 -4.33300781 13.38005066 C-4.34333038 12.29668427 -4.35365295 11.21331787 -4.36428833 10.09712219 C-4.36443939 9.09623566 -4.36459045 8.09534912 -4.36474609 7.06413269 C-4.36918732 6.18032928 -4.37362854 5.29652588 -4.37820435 4.38594055 C-4.03572423 1.34047054 -3.04330554 0.35197778 0 0 Z " fill="#EFEFEF" transform="translate(662.1376953125,437.7527618408203)"/>
<path d="M0 0 C0.8494368 0.00946152 1.6988736 0.01892303 2.5740509 0.02867126 C5.3661624 0.06219949 8.15781596 0.11035521 10.94970703 0.15869141 C12.89168114 0.18487396 14.83366781 0.21013973 16.77566528 0.23452759 C21.8754064 0.30102728 26.9748819 0.37995278 32.07440186 0.46148682 C37.28273358 0.54255469 42.49122063 0.61184273 47.69970703 0.68212891 C57.91083069 0.82165651 68.12171247 0.97431466 78.33251953 1.13525391 C78.33251953 1.46525391 78.33251953 1.79525391 78.33251953 2.13525391 C77.2094339 2.14112015 76.08634827 2.14698639 74.92922974 2.1530304 C64.36351846 2.21015531 53.79801504 2.28286279 43.23251534 2.37096882 C37.80020749 2.41576432 32.36797624 2.45499997 26.93554688 2.48168945 C21.69642472 2.50763111 16.45759591 2.547968 11.21865463 2.59844017 C9.21634433 2.61517096 7.21398323 2.62664638 5.2116127 2.63286781 C2.41452266 2.64244166 -0.38180632 2.67041914 -3.17871094 2.70288086 C-4.43027481 2.70072823 -4.43027481 2.70072823 -5.7071228 2.6985321 C-8.24165377 2.70503249 -8.24165377 2.70503249 -11.66748047 3.13525391 C-12.32748047 4.12525391 -12.98748047 5.11525391 -13.66748047 6.13525391 C-13.99748047 4.81525391 -14.32748047 3.49525391 -14.66748047 2.13525391 C-9.59809774 0.09052169 -5.36073487 -0.11196957 0 0 Z " fill="#FEFEFE" transform="translate(546.66748046875,486.86474609375)"/>
<path d="M0 0 C0 0.99 0 1.98 0 3 C-30.36 2.67 -60.72 2.34 -92 2 C-92 1.67 -92 1.34 -92 1 C-80.89062155 0.86920371 -69.78123874 0.73878562 -58.6718502 0.60884857 C-53.51316486 0.54849998 -48.35448111 0.48802177 -43.19580078 0.42724609 C-38.21617609 0.3685847 -33.23654751 0.31026543 -28.25691605 0.25218201 C-26.35835248 0.22997691 -24.45979035 0.20764914 -22.56122971 0.18519592 C-19.8993847 0.15373684 -17.23753491 0.12271634 -14.57568359 0.09179688 C-13.79309174 0.08244614 -13.01049988 0.0730954 -12.20419312 0.0634613 C-8.13588221 0.01668849 -4.06857719 -0.00947341 0 0 Z " fill="#FEFEFE" transform="translate(523,487)"/>
<path d="M0 0 C5.61 0 11.22 0 17 0 C17.33 0.99 17.66 1.98 18 3 C13.94392005 3.98329211 10.16937798 4.23600253 6 4 C5.34 3.34 4.68 2.68 4 2 C2.68 1.34 1.36 0.68 0 0 Z " fill="#F6F6F8" transform="translate(861,482)"/>
<path d="M0 0 C0.763125 0.61875 1.52625 1.2375 2.3125 1.875 C4.99625809 4.05597052 4.99625809 4.05597052 8 6 C8.474375 6.680625 8.94875 7.36125 9.4375 8.0625 C11.23112328 10.28659286 12.22589786 10.61736522 15 11 C15 12.32 15 13.64 15 15 C10.95904408 12.7938565 7.92853256 10.19773868 4.6875 6.9375 C3.80449219 6.05964844 2.92148437 5.18179688 2.01171875 4.27734375 C0 2 0 2 0 0 Z " fill="#F3F4FB" transform="translate(791,607)"/>
<path d="M0 0 C1.98 0.66 3.96 1.32 6 2 C6.33 1.34 6.66 0.68 7 0 C7 0.99 7 1.98 7 3 C7.66 3.33 8.32 3.66 9 4 C9.144375 4.639375 9.28875 5.27875 9.4375 5.9375 C9.86165035 8.38210855 9.86165035 8.38210855 13 10 C12.67 11.32 12.34 12.64 12 14 C11.34 14 10.68 14 10 14 C9.78085937 13.46890625 9.56171875 12.9378125 9.3359375 12.390625 C6.97739855 7.13664393 4.92312189 4.90911748 0 2 C0 1.34 0 0.68 0 0 Z " fill="#F4F6FA" transform="translate(878,521)"/>
<path d="M0 0 C2.99324263 1.0975223 3.84610901 1.67682892 5.25 4.625 C5.4975 5.40875 5.745 6.1925 6 7 C5.34 7 4.68 7 4 7 C3.84850702 10.62885324 3.84850702 10.62885324 5 14 C3.68 14 2.36 14 1 14 C1.20625 12.989375 1.4125 11.97875 1.625 10.9375 C2.0471494 6.50493131 1.4359485 4.13891038 0 0 Z " fill="#F3F5F9" transform="translate(246,504)"/>
<path d="M0 0 C0.33 0.66 0.66 1.32 1 2 C-0.74906531 2.64836042 -2.49929219 3.29358784 -4.25 3.9375 C-5.71179688 4.47697266 -5.71179688 4.47697266 -7.203125 5.02734375 C-9.46457161 5.81379655 -11.66796552 6.47251601 -14 7 C-14.33 6.34 -14.66 5.68 -15 5 C-10.05 3.35 -5.1 1.7 0 0 Z " fill="#F4F5FA" transform="translate(836,486)"/>
<path d="M0 0 C0.33 0 0.66 0 1 0 C1 8.91 1 17.82 1 27 C0.67 27 0.34 27 0 27 C0 18.09 0 9.18 0 0 Z " fill="#FFFFFF" transform="translate(525,493)"/>
<path d="M0 0 C0.99 0.33 1.98 0.66 3 1 C3.6875 3.0625 3.6875 3.0625 4 5 C3.01 5 2.02 5 1 5 C-0.67099977 5.31088368 -2.33871537 5.64080332 -4 6 C-4 4.35 -4 2.7 -4 1 C-3.01 1.495 -3.01 1.495 -2 2 C-2 2.66 -2 3.32 -2 4 C-1.34 4 -0.68 4 0 4 C0 2.68 0 1.36 0 0 Z " fill="#F7F8F7" transform="translate(235,554)"/>
<path d="M0 0 C0 0.66 0 1.32 0 2 C-5.625 5 -5.625 5 -9 5 C-8.625 3.0625 -8.625 3.0625 -8 1 C-5.29120665 -0.35439668 -2.99066732 -0.06501451 0 0 Z " fill="#F3F4F7" transform="translate(414,489)"/>
<path d="M0 0 C0.33 0.66 0.66 1.32 1 2 C1.99 1.67 2.98 1.34 4 1 C4.66 1.99 5.32 2.98 6 4 C8.05003955 5.19232613 8.05003955 5.19232613 10 6 C10 6.66 10 7.32 10 8 C5.89041233 6.54955729 2.56741255 4.48889248 -1 2 C-0.67 1.34 -0.34 0.68 0 0 Z " fill="#F2F4FA" transform="translate(467,625)"/>
<path d="M0 0 C0.33 0 0.66 0 1 0 C1 5.61 1 11.22 1 17 C0.34 16.67 -0.32 16.34 -1 16 C-0.67 10.72 -0.34 5.44 0 0 Z " fill="#FFFFFF" transform="translate(230,470)"/>
<path d="M0 0 C4.13333333 6.2 4.13333333 6.2 3.625 9.25 C3.41875 9.8275 3.2125 10.405 3 11 C0.81024227 7.71536341 0.00193437 4.79303725 -1 1 C-0.67 0.67 -0.34 0.34 0 0 Z " fill="#F3F5FA" transform="translate(163,574)"/>
<path d="M0 0 C0 3 0 3 -1.2421875 4.60546875 C-1.78101563 5.12753906 -2.31984375 5.64960937 -2.875 6.1875 C-3.40867187 6.71730469 -3.94234375 7.24710938 -4.4921875 7.79296875 C-6 9 -6 9 -8 9 C-6.4169423 4.7257442 -3.49431596 2.73468206 0 0 Z " fill="#F3F3FA" transform="translate(553,621)"/>
<path d="M0 0 C0.66 0 1.32 0 2 0 C2 0.66 2 1.32 2 2 C2.66 2.33 3.32 2.66 4 3 C3.34 3 2.68 3 2 3 C2.66 4.32 3.32 5.64 4 7 C3.01 8.32 2.02 9.64 1 11 C0.67 7.37 0.34 3.74 0 0 Z " fill="#F4F4F9" transform="translate(889,536)"/>
<path d="M0 0 C0.66 0.66 1.32 1.32 2 2 C1.8125 5.5 1.8125 5.5 1 9 C0.01 9.66 -0.98 10.32 -2 11 C-1.34 7.37 -0.68 3.74 0 0 Z " fill="#F6F5F6" transform="translate(889,582)"/>
<path d="M0 0 C0.66 0 1.32 0 2 0 C1.01 3.3 0.02 6.6 -1 10 C-1.99 8.68 -2.98 7.36 -4 6 C-3.01 5.67 -2.02 5.34 -1 5 C-0.67 3.35 -0.34 1.7 0 0 Z " fill="#F6F7F8" transform="translate(375,571)"/>
<path d="M0 0 C0.66 0.66 1.32 1.32 2 2 C0.84414715 5.91211733 -0.35534962 8.8745041 -3 12 C-2.68950274 10.56206608 -2.3765224 9.1246682 -2.0625 7.6875 C-1.88847656 6.88699219 -1.71445313 6.08648438 -1.53515625 5.26171875 C-1 3 -1 3 0 0 Z " fill="#F2F5F8" transform="translate(243,529)"/>
<path d="M0 0 C4.51117936 2.25558968 5.20012321 3.45294283 7 8 C6.67 8.66 6.34 9.32 6 10 C4.02 6.7 2.04 3.4 0 0 Z " fill="#F2F4FB" transform="translate(784,597)"/>
<path d="M0 0 C2.64465038 3.1254959 3.84414715 6.08788267 5 10 C4.34 9.67 3.68 9.34 3 9 C3 8.34 3 7.68 3 7 C2.34 7 1.68 7 1 7 C0.814375 6.071875 0.814375 6.071875 0.625 5.125 C0.12802644 2.80879168 0.12802644 2.80879168 -2 1 C-1.34 0.67 -0.68 0.34 0 0 Z " fill="#F5F6FA" transform="translate(957,521)"/>
<path d="M0 0 C3.3 0 6.6 0 10 0 C8.515 1.485 8.515 1.485 7 3 C4.69 2.34 2.38 1.68 0 1 C0 0.67 0 0.34 0 0 Z " fill="#F5F6F9" transform="translate(883,483)"/>
<path d="M0 0 C0.33 0 0.66 0 1 0 C1 4.95 1 9.9 1 15 C0.67 15 0.34 15 0 15 C0 10.05 0 5.1 0 0 Z " fill="#FFFFFF" transform="translate(428,508)"/>
<path d="M0 0 C0.33 0 0.66 0 1 0 C1 3.96 1 7.92 1 12 C0.67 12 0.34 12 0 12 C0 8.04 0 4.08 0 0 Z " fill="#FFFFFF" transform="translate(530,508)"/>
<path d="M0 0 C0.33 0 0.66 0 1 0 C1 3.63 1 7.26 1 11 C0.67 11 0.34 11 0 11 C0 7.37 0 3.74 0 0 Z " fill="#FFFFFF" transform="translate(525,528)"/>
<path d="M0 0 C0.33 0 0.66 0 1 0 C1 3.63 1 7.26 1 11 C0.67 11 0.34 11 0 11 C0 7.37 0 3.74 0 0 Z " fill="#FFFFFF" transform="translate(530,525)"/>
<path d="M0 0 C0.33 0 0.66 0 1 0 C1 1.98 1 3.96 1 6 C0.01 5.67 -0.98 5.34 -2 5 C-1.34 3.35 -0.68 1.7 0 0 Z " fill="#FFFFFF" transform="translate(562,609)"/>
<path d="M0 0 C2.97 0 5.94 0 9 0 C9 0.33 9 0.66 9 1 C6.03 1 3.06 1 0 1 C0 0.67 0 0.34 0 0 Z " fill="#FFFFFF" transform="translate(435,540)"/>
<path d="M0 0 C1.32 1.65 2.64 3.3 4 5 C2.68 4.34 1.36 3.68 0 3 C0 2.01 0 1.02 0 0 Z " fill="#FFFFFF" transform="translate(753,576)"/>
<path d="M0 0 C0.33 0 0.66 0 1 0 C1 2.64 1 5.28 1 8 C0.67 8 0.34 8 0 8 C0 5.36 0 2.72 0 0 Z " fill="#FFFFFF" transform="translate(428,530)"/>
<path d="M0 0 C0.66 0.66 1.32 1.32 2 2 C1.67 2.99 1.34 3.98 1 5 C0.67 3.35 0.34 1.7 0 0 Z " fill="#FFFFFF" transform="translate(268,569)"/>
<path d="M0 0 C0.33 0 0.66 0 1 0 C1 1.65 1 3.3 1 5 C0.67 5 0.34 5 0 5 C0 3.35 0 1.7 0 0 Z " fill="#FFFFFF" transform="translate(855,578)"/>
<path d="M0 0 C1 4 1 4 1 4 Z " fill="#FFFFFF" transform="translate(525,574)"/>
<path d="M0 0 C1 4 1 4 1 4 Z " fill="#FFFFFF" transform="translate(341,556)"/>
<path d="M0 0 C1 4 1 4 1 4 Z " fill="#FFFFFF" transform="translate(333,526)"/>
<path d="" fill="#FFFFFF" transform="translate(0,0)"/>
<path d="" fill="#FFFFFF" transform="translate(0,0)"/>
<path d="" fill="#FFFFFF" transform="translate(0,0)"/>
<path d="" fill="#FFFFFF" transform="translate(0,0)"/>
<path d="" fill="#FFFFFF" transform="translate(0,0)"/>
<path d="" fill="#FFFFFF" transform="translate(0,0)"/>
<path d="" fill="#FFFFFF" transform="translate(0,0)"/>
<path d="M0 0 C2 1 2 1 2 1 Z " fill="#FFFFFF" transform="translate(668,581)"/>
<path d="" fill="#FFFFFF" transform="translate(0,0)"/>
<path d="" fill="#FFFFFF" transform="translate(0,0)"/>
<path d="" fill="#FFFFFF" transform="translate(0,0)"/>
<path d="" fill="#FFFFFF" transform="translate(0,0)"/>
<path d="" fill="#FFFFFF" transform="translate(0,0)"/>
<path d="" fill="#FFFFFF" transform="translate(0,0)"/>
<path d="" fill="#FFFFFF" transform="translate(0,0)"/>
<path d="" fill="#FFFFFF" transform="translate(0,0)"/>
<path d="" fill="#FFFFFF" transform="translate(0,0)"/>
<path d="" fill="#FFFFFF" transform="translate(0,0)"/>
<path d="" fill="#FFFFFF" transform="translate(0,0)"/>
<path d="M0 0 C2 1 2 1 2 1 Z " fill="#FFFFFF" transform="translate(827,487)"/>
<path d="" fill="#FFFFFF" transform="translate(0,0)"/>
<path d="" fill="#FFFFFF" transform="translate(0,0)"/>
<path d="" fill="#FFFFFF" transform="translate(0,0)"/>
<path d="" fill="#FFFFFF" transform="translate(0,0)"/>
<path d="" fill="#FFFFFF" transform="translate(0,0)"/>
<path d="" fill="#FFFFFF" transform="translate(0,0)"/>
<path d="" fill="#FFFFFF" transform="translate(0,0)"/>
<path d="" fill="#FFFFFF" transform="translate(0,0)"/>
<path d="" fill="#FFFFFF" transform="translate(0,0)"/>
<path d="" fill="#FFFFFF" transform="translate(0,0)"/>
<path d="" fill="#FFFFFF" transform="translate(0,0)"/>
<path d="" fill="#FFFFFF" transform="translate(0,0)"/>
<path d="" fill="#FFFFFF" transform="translate(0,0)"/>
<path d="" fill="#FFFFFF" transform="translate(0,0)"/>
<path d="" fill="#FFFFFF" transform="translate(0,0)"/>
<path d="" fill="#FFFFFF" transform="translate(0,0)"/>
<path d="" fill="#FFFFFF" transform="translate(0,0)"/>
<path d="" fill="#FFFFFF" transform="translate(0,0)"/>
<path d="" fill="#FFFFFF" transform="translate(0,0)"/>
<path d="" fill="#FFFFFF" transform="translate(0,0)"/>
<path d="" fill="#FFFFFF" transform="translate(0,0)"/>
</svg>
